<svg id="Layer_1" data-name="Layer 1" xmlns="http://www.w3.org/2000/svg" xmlns:xlink="http://www.w3.org/1999/xlink" viewBox="0 0 1367.5 709.68"><defs><style>.cls-1{stroke:#000;stroke-miterlimit:10;fill:url(#linear-gradient);}</style><linearGradient id="linear-gradient" x1="52.71" y1="234.76" x2="1362.28" y2="625.07" gradientUnits="userSpaceOnUse"><stop offset="0.01" stop-color="#005b97"/><stop offset="0.18" stop-color="#051917"/><stop offset="0.22" stop-color="#132123"/><stop offset="0.29" stop-color="#393643"/><stop offset="0.38" stop-color="#765877"/><stop offset="0.5" stop-color="#c887bd"/><stop offset="0.53" stop-color="#e195d2"/><stop offset="0.95" stop-color="#cce0f4"/></linearGradient></defs><path class="cls-1" d="M1,1.73s68.5,108.5,132.5,103.5,102.74-88,228.87-103.5S720.5,132.23,811.5,151.23s166,51,262,10,164-34,216,9,77.5,68.84,77.5,68.84V701.73s-8.5-33.5-33.5-47.5-38,21-45,31-62,26-58-6-41-80-52-51,9,40,9,51-61,43-59,4-27-50-31-56-25-26-34-20-30-1-16,32,34,30,34,37-45,46-52,18,20-123-49-91,37,100-40,85-83-46-78-79-123-74-95,1-78,113-74,58-17-122-30-95-4,40,3,70-106,90-73,0-37-63-54-21,61,64,9,61-82-78-78-92-168-85-88,0,106,89,52,96-52-31-104-56,4,105-63,53-63-42-49-79-151-39-81,26,13.39,75,5.69,70.5,73.31,33.5-32.69-28.5,50-92-28-83-3,67-46,79S1,636.33,1,636.33Z"/></svg>